<?xml version="1.0" encoding="UTF-8"?>
<svg id="Camada_2" data-name="Camada 2" xmlns="http://www.w3.org/2000/svg" viewBox="0 0 99.11 132.26">
  <defs>
    <style>
      .cls-1 {
        stroke: #1d1d1b;
        stroke-miterlimit: 10;
        stroke-width: 3.13px;
      }
    </style>
  </defs>
  <g id="Camada_1-2" data-name="Camada 1">
    <path class="cls-1" d="M83.87,48.85c30.45,31.49,6.56,84.09-37.26,81.77-43.78-2.32-61.3-58.73-26.82-85.97,8.99-7.1,22.4-9.36,28.65-19.81.28-.47.57-1.98,1.18-1.83,2.94,6.49,9.67,10.83,15.83,14.01,7.25,3.75,12.49,5.69,18.42,11.82ZM91.13,82.56c0-23.02-18.65-41.67-41.65-41.67S7.82,59.55,7.82,82.56s18.65,41.67,41.65,41.67,41.65-18.66,41.65-41.67Z"/>
    <circle cx="49.47" cy="6.93" r="6.93"/>
  </g>
</svg>